<svg width="205" height="24" viewBox="0 0 205 24" fill="none" xmlns="http://www.w3.org/2000/svg">
<path d="M8.192 23.32C6.82667 23.32 5.54667 23.2133 4.352 23C3.17867 22.808 2.16533 22.52 1.312 22.136V17.752C2.25067 18.1573 3.28533 18.488 4.416 18.744C5.568 19 6.656 19.128 7.68 19.128C8.96 19.128 9.90933 19.0107 10.528 18.776C11.168 18.5413 11.488 18.0293 11.488 17.24C11.488 16.7067 11.328 16.28 11.008 15.96C10.7093 15.64 10.208 15.3627 9.504 15.128C8.82133 14.872 7.88267 14.5733 6.688 14.232C5.28 13.8053 4.16 13.336 3.328 12.824C2.496 12.2907 1.89867 11.6507 1.536 10.904C1.17333 10.1573 0.992 9.24 0.992 8.152C0.992 6.18933 1.696 4.68533 3.104 3.64C4.512 2.59467 6.592 2.072 9.344 2.072C10.5387 2.072 11.7013 2.168 12.832 2.36C13.9627 2.53067 14.88 2.73333 15.584 2.968V7.384C14.6667 7.02133 13.7387 6.75467 12.8 6.584C11.8827 6.41333 10.9867 6.328 10.112 6.328C8.96 6.328 8.02133 6.43467 7.296 6.648C6.592 6.86133 6.24 7.352 6.24 8.12C6.24 8.568 6.368 8.93067 6.624 9.208C6.88 9.464 7.31733 9.69867 7.936 9.912C8.576 10.1253 9.44 10.3813 10.528 10.68C12.2133 11.128 13.504 11.672 14.4 12.312C15.296 12.9307 15.9147 13.656 16.256 14.488C16.5973 15.2987 16.768 16.216 16.768 17.24C16.768 19.0533 16.064 20.5253 14.656 21.656C13.248 22.7653 11.0933 23.32 8.192 23.32ZM25.1533 23.32C23.2759 23.32 21.8893 22.84 20.9933 21.88C20.1186 20.92 19.6813 19.5973 19.6813 17.912V11.736H17.6333V7.832H19.6813V4.664L24.8333 3.288V7.832H28.5133L28.2893 11.736H24.8333V17.56C24.8333 18.2853 25.0146 18.7973 25.3773 19.096C25.7399 19.3733 26.2839 19.512 27.0093 19.512C27.6279 19.512 28.2573 19.4053 28.8973 19.192V22.68C27.8946 23.1067 26.6466 23.32 25.1533 23.32ZM38.786 23.32C35.8633 23.32 33.7087 22.648 32.322 21.304C30.9353 19.9387 30.242 17.976 30.242 15.416C30.242 12.8773 30.9353 10.9253 32.322 9.56C33.73 8.19467 35.8847 7.512 38.786 7.512C41.7087 7.512 43.8633 8.19467 45.25 9.56C46.658 10.9253 47.362 12.8773 47.362 15.416C47.362 17.976 46.6687 19.9387 45.282 21.304C43.8953 22.648 41.73 23.32 38.786 23.32ZM38.786 19.288C39.9807 19.288 40.834 18.9893 41.346 18.392C41.858 17.7947 42.114 16.8027 42.114 15.416C42.114 14.0293 41.858 13.0373 41.346 12.44C40.834 11.8427 39.9807 11.544 38.786 11.544C37.6127 11.544 36.77 11.8427 36.258 12.44C35.746 13.0373 35.49 14.0293 35.49 15.416C35.49 16.8027 35.746 17.7947 36.258 18.392C36.77 18.9893 37.6127 19.288 38.786 19.288ZM57.9758 23.32C55.2664 23.32 53.1438 22.6587 51.6078 21.336C50.0931 20.0133 49.3358 18.04 49.3358 15.416C49.3358 12.7493 50.1251 10.7653 51.7038 9.464C53.3038 8.16267 55.4264 7.512 58.0718 7.512C59.1811 7.512 60.1411 7.59733 60.9518 7.768C61.7838 7.91733 62.5838 8.17333 63.3518 8.536V12.184C62.1571 11.608 60.7598 11.32 59.1598 11.32C57.6664 11.32 56.5251 11.6187 55.7358 12.216C54.9678 12.8133 54.5838 13.88 54.5838 15.416C54.5838 16.8453 54.9464 17.8907 55.6718 18.552C56.3971 19.192 57.5491 19.512 59.1278 19.512C60.6851 19.512 62.1038 19.192 63.3838 18.552V22.36C62.6158 22.7013 61.7838 22.9467 60.8878 23.096C60.0131 23.2453 59.0424 23.32 57.9758 23.32ZM66.007 23V1.432H71.159V12.696L76.119 7.832H81.975L75.895 14.136L82.327 23H76.855L72.663 16.856L71.159 18.328V23H66.007ZM94.0728 23.32C90.8514 23.32 88.4621 22.4773 86.9048 20.792C85.3474 19.0853 84.5688 16.3867 84.5688 12.696C84.5688 9.00533 85.3474 6.31733 86.9048 4.632C88.4621 2.92533 90.8514 2.072 94.0728 2.072C97.3154 2.072 99.7048 2.92533 101.241 4.632C102.798 6.31733 103.577 9.00533 103.577 12.696C103.577 16.3867 102.798 19.0853 101.241 20.792C99.7048 22.4773 97.3154 23.32 94.0728 23.32ZM94.0728 21.08C95.6301 21.08 96.9101 20.8133 97.9128 20.28C98.9368 19.7467 99.6941 18.872 100.185 17.656C100.697 16.4187 100.953 14.7653 100.953 12.696C100.953 10.6267 100.697 8.984 100.185 7.768C99.6941 6.53067 98.9368 5.64533 97.9128 5.112C96.9101 4.57867 95.6301 4.312 94.0728 4.312C92.5154 4.312 91.2248 4.57867 90.2008 5.112C89.1981 5.64533 88.4408 6.53067 87.9288 7.768C87.4381 8.984 87.1927 10.6267 87.1927 12.696C87.1927 14.7653 87.4381 16.4187 87.9288 17.656C88.4408 18.872 89.1981 19.7467 90.2008 20.28C91.2248 20.8133 92.5154 21.08 94.0728 21.08ZM112.427 23L106.475 7.832H109.195L113.899 20.568L118.603 7.832H121.323L115.371 23H112.427ZM130.884 23.32C128.174 23.32 126.148 22.6693 124.804 21.368C123.46 20.0667 122.788 18.0613 122.788 15.352C122.788 12.92 123.364 11.0107 124.516 9.624C125.689 8.216 127.534 7.512 130.052 7.512C131.545 7.512 132.772 7.78933 133.732 8.344C134.713 8.87733 135.438 9.624 135.908 10.584C136.398 11.5227 136.644 12.5893 136.644 13.784V16.632H125.411C125.497 17.784 125.742 18.6907 126.148 19.352C126.574 20.0133 127.204 20.4933 128.036 20.792C128.889 21.0693 130.009 21.208 131.396 21.208C132.953 21.208 134.382 20.9413 135.684 20.408V22.456C135.022 22.7333 134.276 22.9467 133.444 23.096C132.633 23.2453 131.78 23.32 130.884 23.32ZM125.411 14.744H134.308V13.496C134.308 12.2587 133.977 11.3093 133.316 10.648C132.676 9.96533 131.609 9.624 130.116 9.624C128.302 9.624 127.065 10.0507 126.404 10.904C125.742 11.7573 125.411 13.0373 125.411 14.744ZM140.49 23V7.832H142.858L143.05 9.752C143.797 9.26133 144.671 8.81333 145.674 8.408C146.698 8.00267 147.701 7.704 148.682 7.512V9.56C148.085 9.688 147.434 9.86933 146.73 10.104C146.026 10.3173 145.354 10.5627 144.714 10.84C144.074 11.1173 143.541 11.4053 143.114 11.704V23H140.49ZM152.545 23V9.912H150.273V7.832H152.545V6.072C152.545 4.55733 153.067 3.32 154.113 2.36C155.179 1.4 156.555 0.919998 158.241 0.919998C159.67 0.919998 160.811 1.08 161.665 1.4H163.521V23H160.897V9.912H155.169V23H152.545ZM155.169 7.832H160.897V3.352C160.577 3.24533 160.267 3.17067 159.969 3.128C159.67 3.064 159.318 3.032 158.913 3.032C156.417 3.032 155.169 4.04533 155.169 6.072V7.832ZM174.622 23.32C171.976 23.32 170.046 22.648 168.83 21.304C167.635 19.9387 167.038 17.976 167.038 15.416C167.038 12.8773 167.646 10.9253 168.862 9.56C170.078 8.19467 171.998 7.512 174.622 7.512C177.246 7.512 179.166 8.19467 180.382 9.56C181.598 10.9253 182.206 12.8773 182.206 15.416C182.206 17.976 181.608 19.9387 180.414 21.304C179.219 22.648 177.288 23.32 174.622 23.32ZM174.622 21.08C176.435 21.08 177.715 20.632 178.462 19.736C179.208 18.8187 179.582 17.3787 179.582 15.416C179.582 13.4533 179.198 12.024 178.43 11.128C177.683 10.2107 176.414 9.752 174.622 9.752C172.83 9.752 171.55 10.2107 170.782 11.128C170.035 12.024 169.661 13.4533 169.661 15.416C169.661 17.3787 170.035 18.8187 170.782 19.736C171.528 20.632 172.808 21.08 174.622 21.08ZM187.943 23L183.975 7.832H186.599L189.575 20.024L192.967 9.592V7.832H194.983L198.727 20.024L201.703 7.832H204.327L200.359 23H197.735L194.183 11.992L190.567 23H187.943Z" fill="url(#paint0_linear_19_20)"/>
<defs>
<linearGradient id="paint0_linear_19_20" x1="83.3619" y1="39.6222" x2="83.3619" y2="-1.93333" gradientUnits="userSpaceOnUse">
<stop stop-color="#AAB8FF"/>
<stop offset="1" stop-color="#032DFF"/>
</linearGradient>
</defs>
</svg>
