<svg width="42" height="28" viewBox="0 0 42 28" fill="none" xmlns="http://www.w3.org/2000/svg">
<path d="M0.75 25.25C0.75 26.4926 1.75736 27.5 3 27.5H39C40.2426 27.5 41.25 26.4926 41.25 25.25V25.25C41.25 24.0074 40.2426 23 39 23H3C1.75736 23 0.75 24.0074 0.75 25.25V25.25ZM0.75 14C0.75 15.2426 1.75736 16.25 3 16.25H39C40.2426 16.25 41.25 15.2426 41.25 14V14C41.25 12.7574 40.2426 11.75 39 11.75H3C1.75736 11.75 0.75 12.7574 0.75 14V14ZM3 0.5C1.75736 0.5 0.75 1.50736 0.75 2.75V2.75C0.75 3.99264 1.75736 5 3 5H39C40.2426 5 41.25 3.99264 41.25 2.75V2.75C41.25 1.50736 40.2426 0.5 39 0.5H3Z" fill="#2E2C2F"/>
</svg>
